<svg width="139" height="184" viewBox="0 0 139 184" fill="none" xmlns="http://www.w3.org/2000/svg">
<g filter="url(#filter0_d_331_439)">
<path fill-rule="evenodd" clip-rule="evenodd" d="M23.1052 156.716C27.9699 159.315 50.6549 173.213 53.4149 173.853L53.1755 168.316C44.0511 163.157 35.2291 157.457 26.0543 152.347C20.4586 149.271 24.6932 149.096 12.166 148.393C12.166 150.564 21.2778 155.749 23.1052 156.716Z" fill="#062E2D"/>
<path fill-rule="evenodd" clip-rule="evenodd" d="M75.673 165.543C69.8253 168.933 71.2116 167.313 69.9766 173.791C74.1229 172.31 77.5004 170.025 81.2435 167.966C85.6418 165.543 111.452 150.289 112.158 149.059C109.448 149.423 105.189 148.155 102.807 149.297C101.005 150.151 98.2824 151.896 96.4928 152.963C89.5487 157.119 82.655 161.488 75.673 165.543Z" fill="#062E2D"/>
<path fill-rule="evenodd" clip-rule="evenodd" d="M8.44971 82.5223L9.42013 83.8029C12.1171 84.6566 9.93684 83.1626 12.2053 83.828C13.9949 84.3427 15.4317 86.6276 16.7171 87.6445C19.641 89.9294 22.8547 92.4905 25.287 95.3403L31.1347 100.324C31.9161 100.764 33.6301 102.095 34.1846 102.798C35.2054 103.3 36.4153 104.831 37.4613 105.698C38.4317 106.514 39.8181 107.706 40.9649 108.397C41.7463 107.983 40.1961 107.104 39.6794 106.89C41.3682 106.162 38.0411 103.4 37.9906 103.199C37.915 102.358 38.2427 100.914 38.1041 99.659C37.9402 98.0772 37.5622 97.9265 37.6252 95.9681C38.0411 95.7295 37.9402 95.8551 38.3435 95.6416C41.1539 94.1477 38.3687 95.5914 41.217 95.3403C41.0783 94.1602 42.6033 95.4784 41.7211 94.5118C39.9315 91.913 30.1643 85.7237 26.8372 84.1293C20.9391 81.3171 14.3226 79.9487 7.71875 79.8984C7.76916 80.9279 7.83218 81.7565 8.44971 82.5223Z" fill="#75A38C"/>
<path fill-rule="evenodd" clip-rule="evenodd" d="M92.9004 101.303C92.9508 101.341 93.2155 101.315 93.6061 101.617C93.9716 101.905 94.2111 102.194 94.564 102.508L94.6774 105.546L96.8325 105.785L96.9081 107.932C98.1684 108.07 98.9623 107.731 99.8067 108.459L98.5338 110.756C101.155 109.664 106.36 103.224 108.099 100.487C109.486 98.2898 110.67 96.6577 111.855 94.2724C112.485 93.017 117.841 80.7137 117.35 80.0859L114.804 82.9609C112.22 83.7518 106.36 89.5771 104.432 91.4477C101.332 94.4356 95.1185 98.0262 92.9004 101.303Z" fill="#75A38C" stroke="#75A38C" stroke-width="0.288"/>
<path fill-rule="evenodd" clip-rule="evenodd" d="M62.478 93.759H62.2638C61.7975 97.6759 63.1712 114.336 62.0369 116.646C60.9657 118.843 60.7137 117.273 60.2852 117.688C60.6254 118.592 61.6841 120.688 62.2764 121.316C62.7175 120.864 73.1022 97.3997 73.3921 94.7633C73.5685 93.194 72.5351 95.5542 72.4973 93.9473C73.1778 93.3321 73.5181 93.0308 73.6441 91.9637C73.7953 90.6455 73.7953 91.5871 73.3164 91.0598L72.6989 90.2688C69.3718 90.2437 71.4638 88.9506 69.0315 90.3818L68.8677 91.8758C68.414 91.0849 68.9181 91.5871 68.0989 91.3736L67.8342 92.4533C66.952 92.3403 67.2671 92.4282 66.7 91.8381C65.112 94.1858 65.4019 93.3823 63.2342 94.7884C63.2468 95.8304 63.4611 96.4707 62.7175 97.2616L62.478 93.759Z" fill="#75A38C" stroke="#75A38C" stroke-width="0.288"/>
<path fill-rule="evenodd" clip-rule="evenodd" d="M49.7987 79.2194C49.1307 87.1789 49.7104 94.0085 52.6595 101.365C53.7559 104.065 58.6332 114.585 60.4354 118.176C61.1286 119.532 60.9899 118.967 61.0025 118.841C61.431 118.439 60.9647 118.841 62.036 116.644C63.1702 114.334 61.7965 97.6744 62.2628 93.7574L62.3762 90.1794C61.494 88.3967 61.8595 85.2204 61.7587 83.0987C61.5571 78.8428 61.6453 80.6004 60.4858 78.7173C60.2968 78.4034 60.1203 78.1774 59.8179 77.8008L58.671 78.0644C57.8392 79.7216 58.9231 78.5917 57.2973 79.4203C57.2847 81.1151 57.2469 80.7385 56.3899 81.9939C51.4874 82.0567 52.6091 80.4623 50.0507 82.3204C50.0507 81.3286 50.2272 79.935 49.7987 79.2194Z" fill="#75A38C" stroke="#75A38C" stroke-width="0.288"/>
<path fill-rule="evenodd" clip-rule="evenodd" d="M40.9639 108.396C42.4763 110.819 46.3831 113.355 48.6516 115.338C50.1262 116.619 55.2555 121.502 56.6922 121.804L57.0073 120.937C56.2007 117.811 51.6385 109.337 49.8111 106.199C47.656 102.483 43.6357 95.5651 40.3968 93.4434C39.7163 94.2971 40.3464 93.0416 41.216 95.3391C38.3678 95.5902 41.153 94.1464 38.3426 95.6404C37.9393 95.8538 38.0401 95.7283 37.6242 95.9668C37.5612 97.9253 37.9393 98.0759 38.1031 99.6578C38.2417 100.913 37.9141 102.357 37.9897 103.198C38.0401 103.399 41.3672 106.161 39.6785 106.889C40.1952 107.103 41.7453 107.981 40.9639 108.396Z" fill="#75A38C" stroke="#75A38C" stroke-width="0.288"/>
<path fill-rule="evenodd" clip-rule="evenodd" d="M79.0247 124.403C85.8302 122.884 81.016 124.44 81.5579 124.327L89.7623 123.072L95.3075 123.762C97.2106 124.378 98.2314 124.415 99.7059 125.796L105.856 128.784C106.159 128.973 106.549 129.274 106.839 129.475C110.393 131.848 107.81 130.617 109.196 131.835C109.839 132.387 112.46 133.517 112.989 134.471C114.111 136.493 114.275 134.082 114.224 136.568C110.519 135.752 106.486 135.664 102.756 134.71L80.348 130.002C78.4954 129.738 76.9327 129.111 75.0549 128.809C58.0663 126.098 82.1502 126.801 79.6171 124.277L66.6992 126.926C68.9047 132.362 89.4094 142.054 95.3328 142.883C98.055 143.272 101.76 143.423 104.482 143.259C107.268 143.109 115.674 141.464 117.778 140.146C116.291 136.003 109.977 129.751 106.259 127.278C103.94 125.734 101.332 124.579 98.6473 123.8C91.6779 121.779 85.8681 122.733 79.0247 124.403Z" fill="#75A38C"/>
<path fill-rule="evenodd" clip-rule="evenodd" d="M11.7138 131.495C10.693 131.972 5.36203 138.45 5.32422 140.308C8.4119 142.141 18.721 143.585 22.527 143.484C33.6679 142.493 53.5929 133.579 58.0417 126.975C56.4537 126.071 52.4334 130.302 51.7781 129.235L46.3211 129.951C42.5907 130.34 33.6301 132.286 29.8366 133.089C26.144 133.88 22.5648 134.533 18.8218 135.249C15.7719 135.839 11.1215 136.994 8.18505 137.119C8.32368 136.203 11.2223 132.713 12.1297 132.123C12.3188 131.432 12.4196 131.922 11.7138 131.495Z" fill="#75A38C"/>
<path fill-rule="evenodd" clip-rule="evenodd" d="M76.7428 102.356L76.9697 103.285C81.5193 103.762 80.9522 101.616 82.3385 106.474C81.3806 107.993 80.3094 109.588 79.0239 110.818L76.5034 113.128C72.6973 116.53 73.7686 117.434 71.1094 119.958C72.042 119.606 73.7686 117.158 74.8524 116.317C75.5456 115.777 75.722 115.902 76.2513 115.137C77.1713 113.844 81.3806 111.094 81.9352 110.567L92.8996 101.302C95.1177 98.025 101.331 94.4345 104.431 91.4465C106.359 89.5759 112.22 83.7507 114.803 82.9597L116.391 82.3948C116.467 82.5831 117.576 80.7878 117.399 79.7207C104.557 83.3113 95.0043 81.2021 83.5861 93.1414C81.4689 95.3509 77.7762 99.3181 76.7428 102.356Z" fill="#75A38C" stroke="#75A38C" stroke-width="0.288"/>
<path fill-rule="evenodd" clip-rule="evenodd" d="M11.3217 131.921C12.0274 132.348 12.3173 131.431 12.1283 132.122C11.2209 132.712 8.32222 136.202 8.18359 137.118C11.12 136.993 15.7705 135.838 18.8203 135.248C22.5634 134.532 26.1426 133.879 29.8352 133.088C33.6286 132.285 42.5892 130.339 46.3196 129.95L51.7766 129.234C52.432 130.301 51.2347 129.573 52.8353 130.464L58.0402 126.974C57.4227 126.409 47.6429 124.664 45.9415 124.288C41.5684 123.296 37.17 122.718 32.6708 122.769C25.4116 122.831 16.1612 126.309 11.3217 131.921Z" fill="#75A38C" stroke="#75A38C" stroke-width="0.288"/>
<path fill-rule="evenodd" clip-rule="evenodd" d="M56.5781 59.2325L57.2083 59.8351L57.9392 58.4039C58.8466 59.584 58.7332 58.9312 59.8422 59.7849C58.834 60.3122 59.3633 59.697 58.3173 60.3624L59.5902 60.8269C58.7206 61.6179 59.2499 60.9399 59.0231 61.7308C61.5688 62.0196 58.5316 62.007 61.9721 64.882L62.3754 90.1791L62.262 93.7571H62.4762C62.3754 92.2757 62.6401 83.927 62.9929 83.1486C63.7365 82.2573 63.371 83.4248 64.8834 82.7595C66.1814 82.182 65.3497 82.3954 67.5047 82.3201C68.2357 80.8763 67.3283 81.7802 68.9289 80.8512L68.9919 79.2191L70.9705 79.2066C71.462 80.2611 70.6428 80.2235 71.9409 80.4494C73.4155 80.7256 71.4242 79.7715 73.4533 80.4118L73.5163 83.5378C73.97 83.3495 74.4615 81.6421 74.1716 81.0521L74.2976 89.6769C76.2259 86.6388 73.4659 72.0882 71.4872 67.5059C68.6138 60.8269 65.4631 56.2446 61.9595 50.1934C60.8001 51.0596 57.2587 57.2489 56.5781 59.2325Z" fill="#75A38C" stroke="#75A38C" stroke-width="0.288"/>
<path fill-rule="evenodd" clip-rule="evenodd" d="M81.104 123.964C77.9029 124.366 75.7478 126.211 74.3111 125.973C78.8733 126.173 66.8125 125.144 68.9801 128.107C70.5051 128.772 73.4163 128.684 75.2941 128.986C77.2224 129.3 78.8355 129.94 80.7386 130.216L103.789 135.049C107.633 136.041 111.767 136.129 115.598 136.958C115.459 135.677 115.358 137.686 114.312 134.811C113.77 133.832 111.073 132.664 110.418 132.099C108.994 130.844 111.641 132.112 107.998 129.664C107.696 129.463 107.28 129.161 106.99 128.961L100.651 125.885C99.126 124.466 98.08 124.428 96.1266 123.801L90.2537 122.922L84.5194 123.462C83.6876 123.55 81.2805 123.826 81.104 123.964Z" fill="#75A38C"/>
<path fill-rule="evenodd" clip-rule="evenodd" d="M18.9707 104.617C20.3066 106.35 25.2091 110.731 26.8474 111.999C33.3505 117.059 44.7434 120.084 52.8596 121.578C54.8886 121.955 56.0229 122.281 58.0141 122.859L56.8547 120.436L56.6908 121.804C55.2541 121.503 50.1248 116.619 48.6503 115.339C46.3818 113.355 42.4749 110.819 40.9626 108.396C39.8157 107.706 38.4294 106.513 37.459 105.697C36.413 104.831 35.2031 103.299 34.1823 102.797C32.7329 104.115 33.0606 102.483 32.8842 104.705C30.5653 104.831 31.7373 105.082 30.3888 105.609C28.385 105.609 26.3811 105.634 24.3773 105.647C22.6381 105.647 23.1674 105.597 21.7559 105.119C21.0754 104.906 19.1976 104.743 18.9707 104.617Z" fill="#75A38C" stroke="#75A38C" stroke-width="0.288"/>
<path fill-rule="evenodd" clip-rule="evenodd" d="M7.98242 81.4922C8.3227 85.7481 16.0734 102.822 19.6526 105.069C20.0307 104.467 21.0767 104.881 21.7573 105.12C23.1688 105.597 22.6395 105.647 24.3786 105.647C26.3825 105.634 28.3863 105.609 30.3902 105.609C31.7387 105.082 30.5666 104.831 32.8855 104.705C33.062 102.483 32.7343 104.115 34.1836 102.797C33.6291 102.094 31.9151 100.763 31.1337 100.324L25.286 95.3397C22.8537 92.4898 19.64 89.9287 16.7162 87.6438C15.4307 86.6269 13.994 84.342 12.2044 83.8273C9.93585 83.1619 12.1161 84.6559 9.41914 83.8022L7.98242 81.4922Z" fill="#75A38C" stroke="#75A38C" stroke-width="0.288"/>
<path fill-rule="evenodd" clip-rule="evenodd" d="M71.1109 119.959C70.4555 121.189 70.2791 120.875 69.3339 121.352C68.7919 121.616 68.313 122.306 67.5317 122.871L67.267 122.156C67.0906 121.704 67.3552 121.955 67.141 121.591L66.5234 123.172C67.4939 123.198 73.8583 121.239 75.3706 120.812C78.2566 120.009 81.1427 119.143 83.9909 118.352C86.9778 117.536 100.198 110.693 101.66 108.283L99.8074 108.459C98.963 107.731 98.169 108.07 96.9088 107.931L96.8331 105.785L94.6781 105.546L94.5646 102.508C94.2118 102.194 93.9723 101.905 93.6068 101.617C93.2161 101.315 92.9515 101.34 92.9011 101.303L81.9366 110.568C81.3821 111.095 77.1728 113.845 76.2528 115.138C75.7235 115.903 75.547 115.778 74.8539 116.318C73.77 117.159 72.0435 119.607 71.1109 119.959Z" fill="#75A38C" stroke="#75A38C" stroke-width="0.288"/>
<path fill-rule="evenodd" clip-rule="evenodd" d="M56.4909 59.1325C53.2268 64.9577 50.4416 72.3271 49.7988 79.2195C50.2273 79.9351 50.0509 81.3286 50.0509 82.3204C52.6092 80.4624 51.4876 82.0568 56.3901 81.994C57.2471 80.7386 57.2849 81.1152 57.2975 79.4204C58.9232 78.5918 57.8394 79.7217 58.6712 78.0645L59.818 77.8008C60.1205 78.1775 60.297 78.4034 60.486 78.7173C61.6454 80.6005 61.5572 78.8428 61.7589 83.0988C61.8597 85.2205 61.4942 88.3967 62.3764 90.1795L61.9731 64.8824C58.5326 62.0074 61.5698 62.02 59.0241 61.7312C59.2509 60.9403 58.7216 61.6182 59.5912 60.8273L58.3183 60.3628C59.3643 59.6974 58.835 60.3126 59.8433 59.7853C58.7342 58.9316 58.8476 59.5844 57.9402 58.4043L57.2093 59.8355L56.4909 59.1325Z" fill="#75A38C"/>
<path fill-rule="evenodd" clip-rule="evenodd" d="M14.8008 74.8256C18.0649 76.169 21.4803 76.8092 22.6397 77.098C28.1471 72.5407 37.9647 67.1675 44.4551 63.4137C53.1889 58.8062 51.2733 59.1201 53.882 52.416C52.4327 52.3909 19.237 71.6117 14.8008 74.8256Z" fill="#062E2D"/>
<path fill-rule="evenodd" clip-rule="evenodd" d="M85.5016 155.11C85.2748 146.674 74.3104 139.467 69.1306 134.797C67.6057 133.429 65.2616 131.357 63.5098 130.303C63.85 133.705 65.2616 136.881 66.5092 139.995C70.3279 149.498 76.2638 152.524 85.5016 155.11Z" fill="#75A38C"/>
<path fill-rule="evenodd" clip-rule="evenodd" d="M114.414 101.618L114.528 125.822C114.83 126.224 119.128 130.932 119.732 131.459C120.539 127.907 119.922 115.227 119.896 110.745L119.972 90.6074C119.115 91.4737 114.401 101.028 114.414 101.618Z" fill="#062E2D"/>
<path fill-rule="evenodd" clip-rule="evenodd" d="M38.5566 154.647C49.1934 152.689 60.5863 141.063 60.3343 130.078C51.8274 137.46 41.7577 143.612 38.5566 154.647Z" fill="#75A38C"/>
<path fill-rule="evenodd" clip-rule="evenodd" d="M59.5146 148.043C59.3885 153.052 59.4011 157.572 59.2877 163.548C59.2625 166.373 58.8088 174.859 62.0099 176.002C65.2236 174.144 64.8582 165.971 64.8708 162.569C64.9086 157.723 65.4001 150.341 64.2154 145.871C63.7743 144.917 63.0686 144.402 62.4384 144.289C61.0269 144.026 59.5902 145.67 59.5146 148.043Z" fill="#75A38C"/>
<path fill-rule="evenodd" clip-rule="evenodd" d="M62.4767 93.7576L62.7162 97.2603C63.4597 96.4693 63.2455 95.8291 63.2329 94.787C65.4006 93.3809 65.1107 94.1844 66.6987 91.8368C67.2658 92.4268 66.9507 92.3389 67.8329 92.4519L68.0976 91.3722C68.9168 91.5857 68.4126 91.0835 68.8663 91.8744L69.0302 90.3804C71.4625 88.9492 69.3705 90.2423 72.6976 90.2675L73.3151 91.0584C73.794 91.5857 73.794 90.6441 73.6428 91.9623C73.5168 93.0294 73.1765 93.3307 72.4959 93.9459C72.5338 95.5529 72.8236 95.7788 72.6598 97.3481C73.4916 95.9923 75.3064 88.0955 74.9409 86.3756L74.1469 80.1486C74.1469 80.7763 73.9705 83.35 73.5168 83.5383L73.4538 80.4123C71.4247 79.772 73.4159 80.7261 71.9414 80.4499C70.6433 80.2239 71.4625 80.2616 70.971 79.207L68.9924 79.2196L68.9294 80.8517C67.3288 81.7807 68.2362 80.8768 67.5052 82.3205C65.3502 82.3958 66.1819 82.1824 64.8839 82.7599C63.3715 83.4253 63.737 82.2577 62.9934 83.1491C62.6406 83.9275 62.3759 92.2762 62.4767 93.7576Z" fill="#75A38C"/>
<path fill-rule="evenodd" clip-rule="evenodd" d="M77.0704 101.555C76.2386 102.233 72.546 110.041 71.6386 111.699C69.9246 114.8 68.4249 117.976 67.1016 121.366C67.3158 121.717 67.089 121.704 67.2654 122.156L67.5301 122.872C68.3114 122.307 68.7903 121.617 69.3323 121.353C70.2775 120.876 70.4539 121.19 71.1092 119.959C73.7684 117.436 72.6972 116.532 76.5032 113.13L79.0238 110.82C80.3093 109.589 81.3805 107.995 82.3383 106.476C80.952 101.617 81.5192 103.764 76.9695 103.287L77.0704 101.555Z" fill="#75A38C"/>
<path fill-rule="evenodd" clip-rule="evenodd" d="M4.49151 131.533C5.51233 129.65 9.30577 126.248 9.4066 125.984L9.67125 100.951C9.68386 100.737 9.64605 100.524 9.67125 100.336C9.8729 99.0426 5.29809 92.7779 4.55452 90.5684C4.28986 91.4597 4.30247 92.2506 4.02521 95.0879L4 121.289C4 122.733 4.11343 130.78 4.49151 131.533Z" fill="#062E2D"/>
<path fill-rule="evenodd" clip-rule="evenodd" d="M85.4908 32.1384C85.0474 33.0657 77.1233 40.9774 73.0419 47.9882C71.4535 50.7227 69.3858 53.7589 67.6417 56.3524C64.4957 61.0223 65.3371 61.537 63.6772 66.1361C59.4818 66.1834 60.2985 64.098 57.5337 61.728C55.1215 59.6659 53.7545 59.0936 51.2112 57.4659C41.9413 51.5086 51.5133 47.2749 47.355 43.2822C43.8517 39.9166 38.6445 37.9207 34.6712 35.3652C29.8732 32.2912 27.457 26.1632 31.0808 21.2625C34.6916 16.3822 41.3295 16.5066 46.1605 19.4146C50.6075 22.1099 53.762 25.1844 58.6997 27.6283C63.4632 30.0058 62.209 19.1091 71.9338 24.735C74.0924 25.9916 76.2354 27.5686 78.5594 28.5415C81.4882 29.7655 83.1693 28.841 85.4908 32.1384Z" fill="#062E2D"/>
<path fill-rule="evenodd" clip-rule="evenodd" d="M123.562 84.863C121.762 84.0185 118.592 84.2221 115.711 82.7409L98.1537 71.5734C94.4896 69.2123 90.1902 66.4661 86.3981 64.3979C82.6679 62.3686 78.4876 58.9795 74.6776 56.5984C72.694 58.1368 69.6267 64.8664 66.403 65.7686C65.3625 63.5207 73.4089 51.321 74.886 50.3545C78.8277 55.4171 102.992 69.5327 110.949 74.3773C114.349 76.4283 121.229 81.9028 123.357 76.5643C121.177 71.633 81.3475 49.7791 77.6147 46.5708C77.8009 45.367 85.0904 35.7497 86.2109 33.9128C87.5186 45.5897 73.6304 38.5954 93.8492 51.5225C102.176 56.8295 116.057 65.2692 123.655 70.7931C133.71 78.1052 126.344 77.6521 130.608 81.9554C133.732 83.4171 137.159 87.7682 132.184 91.3888C124.405 95.2713 125.09 87.9342 123.562 84.863Z" fill="#062E2D"/>
</g>
<defs>
<filter id="filter0_d_331_439" x="0" y="17.3809" width="138.697" height="166.621" filterUnits="userSpaceOnUse" color-interpolation-filters="sRGB">
<feFlood flood-opacity="0" result="BackgroundImageFix"/>
<feColorMatrix in="SourceAlpha" type="matrix" values="0 0 0 0 0 0 0 0 0 0 0 0 0 0 0 0 0 0 127 0" result="hardAlpha"/>
<feOffset dy="4"/>
<feGaussianBlur stdDeviation="2"/>
<feComposite in2="hardAlpha" operator="out"/>
<feColorMatrix type="matrix" values="0 0 0 0 0 0 0 0 0 0 0 0 0 0 0 0 0 0 0.3 0"/>
<feBlend mode="normal" in2="BackgroundImageFix" result="effect1_dropShadow_331_439"/>
<feBlend mode="normal" in="SourceGraphic" in2="effect1_dropShadow_331_439" result="shape"/>
</filter>
</defs>
</svg>
